# Blender v2.81 (sub 16) OBJ File: 'Building_3 - Spawn_unten.blend'
# www.blender.org
mtllib Buildings_Spawn_unten.mtl
o Cube_Cube.001
v -0.491717 -0.000003 -3.933738
v -0.491717 -0.000003 -1.966869
v -0.491717 1.814397 -1.966869
v -0.491717 1.814505 -3.933738
v 0.508283 -0.000003 -3.933738
v 0.508283 -0.000003 -1.966869
v 0.508283 1.814397 -1.966869
v 0.508283 1.814505 -3.933738
vt 0.375000 0.359375
vt 0.387613 0.359375
vt 0.387613 0.359375
vt 0.375000 0.359375
vt 0.234375 0.562500
vt 0.234375 0.562500
vt 0.000000 0.000000
vt 0.000000 0.000000
vt 0.000000 0.000000
vt 0.000000 0.000000
vt 0.234375 0.562500
vt 0.234375 0.562500
vt 0.000000 0.000000
vt 0.000000 0.000000
vt 0.000000 0.000000
vt 0.000000 0.000000
vn 0.0000 0.0000 -1.0000
vn 1.0000 0.0000 0.0000
vn 0.0000 -1.0000 0.0000
vn 0.0000 0.0000 1.0000
vn 0.0000 1.0000 0.0001
vn -1.0000 0.0000 0.0000
usemtl Material.001
s off
f 1/1/1 4/2/1 8/3/1 5/4/1
f 8/3/2 7/5/2 6/6/2 5/4/2
f 2/7/3 1/8/3 5/9/3 6/10/3
f 3/11/4 2/12/4 6/6/4 7/5/4
f 4/13/5 3/14/5 7/15/5 8/16/5
f 4/13/6 1/8/6 2/12/6 3/14/6
