# Blender v2.81 (sub 16) OBJ File: 'Stone_Model.blend'
# www.blender.org
mtllib Environment_Stone_5.mtl
o Cube
v 0.500000 1.627600 -0.500000
v 3.228266 0.054784 -2.801687
v 0.500000 1.657323 0.500000
v 2.258551 0.000000 1.452577
v -0.540114 0.762041 -0.790325
v -1.890373 0.000000 -2.734465
v -0.500000 1.726320 0.500000
v -2.411494 0.000000 2.553708
v -3.717290 -0.054784 -0.785896
v -0.324795 -0.054784 -3.408371
v 1.399707 1.000000 -1.017892
v -2.052610 1.000000 1.081404
v 0.716937 1.000000 1.112899
v -1.273480 1.000000 -1.395464
v -0.000000 1.829584 0.609568
v 0.609568 1.835887 0.000000
v -0.060508 0.000000 2.454927
v -0.609568 1.156985 -0.000000
v 0.000000 0.853077 -0.609568
v 3.384127 0.000000 0.000000
v -0.000000 1.275565 -0.000000
v 0.107369 1.000000 1.342838
v -2.041037 1.000000 -0.785896
v 0.000000 0.000000 0.000000
v 1.503475 1.000000 -0.000000
v 0.106862 1.000000 -1.590701
v -1.145936 -0.001174 -3.316623
vt 0.666667 0.458333
vt 0.755208 0.494792
vt 0.751736 0.625000
vt 0.875000 0.545764
vt 0.875000 0.625000
vt 0.875000 0.750000
vt 0.755208 0.755208
vt 0.666667 0.791667
vt 0.500000 0.756944
vt 0.500000 0.876736
vt 0.369792 0.880208
vt 0.630208 0.880208
vt 0.625000 1.000000
vt 0.500000 1.000000
vt 0.375000 0.000000
vt 0.500000 0.000000
vt 0.500000 0.125000
vt 0.625000 0.000000
vt 0.625000 0.125000
vt 0.625000 0.204236
vt 0.500000 0.250000
vt 0.375000 0.250000
vt 0.125000 0.500000
vt 0.127566 0.499888
vt 0.244792 0.494792
vt 0.333333 0.458333
vt 0.368056 0.625000
vt 0.248264 0.625000
vt 0.333333 0.791667
vt 0.244792 0.755208
vt 0.125000 0.625000
vt 0.125000 0.750000
vt 0.500000 0.493056
vt 0.500000 0.625000
vt 0.631945 0.625000
vt 0.500000 0.373264
vt 0.374888 0.252566
vt 0.630208 0.369792
vt 0.369792 0.369792
vt 0.375000 0.125000
vt 0.375000 1.000000
vn -0.7541 0.5398 -0.3741
vn -0.0011 0.8945 -0.4471
vn -0.1300 0.6683 -0.7325
vn 0.1069 0.7358 -0.6687
vn 0.2519 0.7004 0.6678
vn 0.3741 0.6955 0.6135
vn -0.2878 0.6131 0.7357
vn -0.0799 0.7472 0.6598
vn -0.9439 0.3301 -0.0059
vn -0.5125 0.6202 -0.5939
vn 0.1399 0.8906 -0.4328
vn -0.3560 0.8199 -0.4483
vn -0.0754 -0.9927 -0.0944
vn 0.0000 -0.9998 -0.0196
vn 0.0000 -1.0000 0.0000
vn 0.0082 -0.9999 0.0077
vn 0.4251 0.9041 -0.0433
vn 0.3410 0.8389 -0.4242
vn 0.6318 0.6757 0.3798
vn 0.4456 0.8380 0.3149
vn -0.0657 0.8831 -0.4646
vn -0.2049 0.9710 0.1231
vn -0.2961 0.3185 -0.9005
vn 0.2344 0.8156 -0.5290
vn 0.0004 0.8649 -0.5020
vn 0.0457 0.9013 -0.4307
vn -0.0625 0.9880 0.1411
vn 0.0450 0.9471 0.3179
vn -0.3513 0.8205 -0.4509
vn 0.6353 0.6283 0.4490
vn 0.6814 0.7286 -0.0695
vn 0.4695 0.8829 -0.0089
vn 0.0285 -0.9995 0.0133
vn 0.0173 -0.9998 -0.0119
vn -0.0828 0.7246 0.6841
vn 0.2659 0.6575 0.7049
vn 0.2915 0.6784 0.6744
vn -0.6723 0.7314 0.1139
vn -0.0054 0.7400 -0.6726
vn -0.1579 0.8116 -0.5625
vn -0.6684 0.7272 -0.1564
vn 0.4537 0.8189 0.3516
vn -0.0270 -0.9995 0.0186
vn -0.4810 0.7644 -0.4295
vn 0.1542 0.9688 0.1941
vn -0.1086 0.9941 -0.0007
vn -0.5228 0.8308 0.1908
vn 0.0238 0.8243 0.5657
usemtl Material
s off
f 1/1/1 19/2/1 21/3/1
f 19/2/2 5/4/2 18/5/2
f 21/3/3 18/5/3 7/6/3
f 21/3/4 15/7/4 3/8/4
f 13/9/5 22/10/5 17/11/5
f 13/9/6 3/8/6 15/12/6
f 22/10/7 15/12/7 7/13/7
f 17/11/8 22/10/8 12/14/8
f 8/15/9 12/16/9 23/17/9
f 12/16/10 7/18/10 18/19/10
f 23/17/11 18/19/11 5/20/11
f 23/17/12 14/21/12 6/22/12
f 6/23/13 27/24/13 10/25/13
f 2/26/14 20/27/14 24/28/14
f 24/28/15 20/27/15 4/29/15 17/30/15
f 9/31/16 24/28/16 17/30/16 8/32/16
f 2/26/17 11/33/17 25/34/17
f 11/33/18 1/1/18 16/35/18
f 25/34/19 16/35/19 3/8/19
f 20/27/20 25/34/20 13/9/20
f 14/21/21 26/36/21 27/37/21
f 5/20/22 19/38/22 26/36/22
f 19/38/23 1/1/23 11/33/23
f 10/39/24 26/36/24 11/33/24
f 27/37/25 26/36/25 10/39/25
f 11/33/26 2/26/26 10/39/26
f 26/36/27 19/38/27 11/33/27
f 14/21/28 5/20/28 26/36/28
f 6/22/29 14/21/29 27/37/29
f 13/9/30 25/34/30 3/8/30
f 25/34/31 11/33/31 16/35/31
f 20/27/32 2/26/32 25/34/32
f 10/25/33 2/26/33 24/28/33
f 9/31/34 6/23/34 24/28/34
f 12/14/35 22/10/35 7/13/35
f 22/10/36 13/9/36 15/12/36
f 4/29/37 13/9/37 17/11/37
f 16/35/38 21/3/38 3/8/38
f 15/7/39 21/3/39 7/6/39
f 21/3/40 19/2/40 18/5/40
f 16/35/41 1/1/41 21/3/41
f 4/29/42 20/27/42 13/9/42
f 24/28/43 6/23/43 10/25/43
f 9/40/44 23/17/44 6/22/44
f 14/21/45 23/17/45 5/20/45
f 23/17/46 12/16/46 18/19/46
f 9/40/47 8/15/47 23/17/47
f 8/41/48 17/11/48 12/14/48
