# Blender v2.81 (sub 16) OBJ File: 'Coral.blend'
# www.blender.org
mtllib Environment_Coral_1.mtl
o Cube
v 0.264998 0.634063 -0.251664
v 0.264998 -0.128996 -0.264998
v 0.264998 0.468058 0.251664
v 0.264998 -0.128996 0.264998
v -0.264998 0.634063 -0.251664
v -0.264998 -0.128996 -0.264998
v -0.264998 0.468058 0.251664
v -0.264998 -0.128996 0.264998
v 0.651879 1.545897 0.647574
v 0.122168 1.563298 0.647574
v 0.580981 1.656512 0.123428
v 0.162690 1.670253 0.123428
v 0.656715 2.116110 0.780533
v 0.149480 2.124369 0.782989
v 0.542247 2.323040 0.367040
v 0.287855 2.339802 0.430779
v 0.154599 2.028206 -0.384745
v 0.652693 1.999509 -0.394082
v 0.247132 2.353855 -0.135950
v 0.576407 2.355372 -0.126614
v 0.662348 3.083364 1.112357
v 0.215433 3.102647 1.004360
v 0.620202 3.222191 0.607196
v 0.247933 3.235999 0.641367
v 0.353581 2.652764 -0.778477
v 0.492468 2.648201 -0.778477
v 0.379434 2.713389 -0.616016
v 0.470651 2.710392 -0.616016
v 0.683995 2.523507 1.165274
v 0.154284 2.540908 1.165274
v 0.660390 3.023766 1.165366
v 0.210671 3.038540 1.165366
v 0.583613 3.876448 1.259123
v 0.340838 3.884053 1.256721
v 0.586111 3.879477 1.016250
v 0.343336 3.887082 1.013847
v -0.416849 1.990762 0.661428
v -0.291778 2.072166 0.181915
v -0.262777 2.369958 0.742833
v -0.143273 2.459486 0.364536
v -1.115911 2.593905 0.531922
v -0.854554 2.614021 0.313894
v -0.942231 2.704833 0.631942
v -0.728994 2.729150 0.460180
v 0.007673 1.237854 -0.032890
v 0.426077 1.230984 -0.032890
v 0.458438 1.006977 0.449619
v -0.071415 1.015678 0.449619
v -1.032500 0.907045 0.626145
v -0.985040 0.859610 0.329868
v -0.779770 1.151408 0.637184
v -0.730969 1.103246 0.341246
v 0.668397 2.816759 1.597534
v 0.170872 2.833103 1.597534
v 0.646226 3.286621 1.597621
v 0.223833 3.300497 1.597621
v -0.042859 2.155732 0.949804
v -0.054879 1.770565 0.939431
v -0.153230 2.269400 0.915659
v -0.357962 1.943995 0.887333
v -0.235542 2.220196 1.162676
v -0.243451 1.966786 1.155851
v -0.308158 2.294981 1.140211
v -0.442856 2.080889 1.121575
v -0.289760 2.185447 1.263075
v -0.294130 2.045438 1.259304
v -0.329881 2.226765 1.250663
v -0.404301 2.108480 1.240367
v -1.148255 0.954085 0.500470
v -1.112380 0.937258 0.325511
v -1.056896 1.140500 0.506989
v -1.020131 1.123538 0.332230
v -1.287069 1.090126 0.407764
v -1.271587 1.082864 0.332262
v -1.247644 1.170571 0.410577
v -1.231779 1.163252 0.335162
v -1.313648 2.890268 0.364880
v -1.235087 2.916259 0.263664
v -1.285711 2.955399 0.418946
v -1.196006 3.007370 0.339295
v 1.106337 2.115440 0.242652
v 1.159409 2.030747 0.545693
v 0.843320 2.381993 0.376790
v 0.970073 2.317143 0.625744
v 1.511595 2.529185 0.282609
v 1.543603 2.478107 0.465371
v 1.352971 2.689941 0.363507
v 1.429415 2.650831 0.513650
v 1.920867 2.928205 0.148129
v 1.937482 2.901691 0.243001
v 1.838525 3.011655 0.190123
v 1.878207 2.991352 0.268063
v 0.486503 0.872001 -0.027639
v 0.503161 0.821373 0.133961
v 0.492255 1.056031 0.035917
v 0.508078 1.005143 0.197517
v 0.558096 3.415891 2.140085
v 0.288211 3.424384 2.137541
v 0.546069 3.660065 2.066995
v 0.316940 3.667276 2.064835
v 0.558094 3.592050 2.417795
v 0.288209 3.600894 2.417181
v 0.546067 3.846318 2.400175
v 0.316938 3.853827 2.399653
v 0.533616 3.640803 2.765191
v 0.314247 3.647992 2.764692
v 0.523840 3.847479 2.750869
v 0.337598 3.853583 2.750445
v 0.478474 3.918424 3.120396
v 0.372906 3.921578 3.118954
v 0.473770 4.009104 3.078962
v 0.384144 4.011782 3.077738
v 0.283809 3.525824 0.763355
v 0.603883 3.520893 0.749189
v 0.622980 3.461560 1.182092
v 0.278136 3.475189 1.128093
v 0.557322 4.353751 1.343403
v 0.397653 4.358752 1.341823
v 0.558965 4.355742 1.183669
v 0.399296 4.360744 1.182089
v 0.528544 4.615317 1.309072
v 0.443417 4.617984 1.308230
v 0.529419 4.616379 1.223911
v 0.444293 4.619046 1.223069
v 0.518026 4.803231 1.294768
v 0.465957 4.804862 1.294253
v 0.518562 4.803881 1.242677
v 0.466492 4.805512 1.242161
v 0.210287 3.485296 0.113730
v 0.581399 3.494697 0.064126
v 0.565079 3.695417 0.326987
v 0.246163 3.687269 0.354742
v 0.242671 4.004591 -0.302152
v 0.453961 4.011326 -0.324834
v 0.442287 4.154910 -0.136799
v 0.269124 4.153516 -0.124444
v 0.303629 4.275422 -0.539848
v 0.510504 4.270626 -0.491031
v 0.466819 4.486079 -0.402820
v 0.299763 4.490695 -0.449843
v 0.435560 4.478254 -0.892997
v 0.571950 4.475092 -0.860812
v 0.543149 4.617137 -0.802656
v 0.433011 4.620181 -0.833658
v 0.521990 4.607469 -1.091918
v 0.595890 4.605756 -1.074480
v 0.580285 4.682720 -1.042969
v 0.520609 4.684369 -1.059766
v 1.020200 3.550388 0.694752
v 1.093737 3.498993 1.007134
v 0.898133 3.689384 0.782557
v 0.930089 3.667833 1.050256
v 1.249700 3.809018 0.749546
v 1.278936 3.761087 0.945032
v 1.214656 3.919350 0.804494
v 1.227558 3.898970 0.972017
v 1.507863 3.920091 0.786963
v 1.524773 3.892369 0.900028
v 1.487595 3.983904 0.818744
v 1.495057 3.972117 0.915636
v 0.309329 4.638135 1.290477
v 0.310251 4.638446 1.230262
v 0.375525 4.712063 1.277813
v 0.376016 4.712229 1.245710
v 0.216917 4.745028 1.278680
v 0.217505 4.745225 1.240327
v 0.259080 4.792115 1.270614
v 0.259393 4.792221 1.250166
v 0.496096 4.141541 2.201038
v 0.392952 4.144619 2.202456
v 0.496095 4.105169 2.368970
v 0.392951 4.107859 2.371031
v 0.473301 4.372508 2.303404
v 0.430978 4.373770 2.303986
v 0.473301 4.357583 2.372312
v 0.430978 4.358687 2.373157
v 0.408731 2.999445 -0.851756
v 0.460191 2.997755 -0.851756
v 0.418310 3.021908 -0.791561
v 0.452108 3.020798 -0.791561
v -0.349024 2.159962 1.429331
v -0.350728 2.105357 1.427860
v -0.364671 2.176076 1.424490
v -0.393696 2.129944 1.420475
v 0.452525 3.996491 3.228448
v 0.400511 3.998045 3.227737
v 0.450207 4.041171 3.208033
v 0.406048 4.042490 3.207430
vt 0.625000 0.500000
vt 0.625000 0.250000
vt 0.625000 0.250000
vt 0.625000 0.500000
vt 0.375000 0.750000
vt 0.625000 0.750000
vt 0.625000 1.000000
vt 0.375000 1.000000
vt 0.375000 0.000000
vt 0.625000 0.000000
vt 0.625000 0.250000
vt 0.375000 0.250000
vt 0.125000 0.500000
vt 0.375000 0.500000
vt 0.125000 0.750000
vt 0.625000 0.500000
vt 0.625000 1.000000
vt 0.625000 0.750000
vt 0.625000 0.750000
vt 0.625000 1.000000
vt 0.625000 1.000000
vt 0.625000 0.750000
vt 0.625000 0.000000
vt 0.625000 0.000000
vt 0.625000 0.500000
vt 0.875000 0.500000
vt 0.875000 0.500000
vt 0.625000 0.500000
vt 0.625000 0.500000
vt 0.875000 0.500000
vt 0.625000 0.750000
vt 0.625000 0.500000
vt 0.625000 0.250000
vt 0.625000 0.250000
vt 0.625000 0.250000
vt 0.625000 0.250000
vt 0.625000 0.250000
vt 0.625000 0.250000
vt 0.625000 0.250000
vt 0.625000 0.500000
vt 0.625000 0.500000
vt 0.875000 0.500000
vt 0.875000 0.500000
vt 0.625000 0.500000
vt 0.625000 0.750000
vt 0.625000 0.000000
vt 0.625000 0.000000
vt 0.625000 0.250000
vt 0.625000 0.000000
vt 0.625000 0.000000
vt 0.875000 0.500000
vt 0.625000 0.500000
vt 0.625000 0.500000
vt 0.875000 0.500000
vt 0.625000 0.500000
vt 0.625000 0.750000
vt 0.625000 0.750000
vt 0.625000 0.750000
vt 0.625000 0.750000
vt 0.625000 1.000000
vt 0.875000 0.750000
vt 0.875000 0.750000
vt 0.875000 0.500000
vt 0.625000 0.500000
vt 0.625000 0.750000
vt 0.625000 0.750000
vt 0.625000 0.250000
vt 0.625000 0.000000
vt 0.625000 0.000000
vt 0.625000 0.250000
vt 0.875000 0.750000
vt 0.875000 0.750000
vt 0.625000 1.000000
vt 0.625000 1.000000
vt 0.625000 1.000000
vt 0.625000 1.000000
vt 0.625000 0.000000
vt 0.625000 0.000000
vt 0.625000 0.000000
vt 0.625000 0.000000
vt 0.625000 1.000000
vt 0.625000 1.000000
vt 0.625000 0.000000
vt 0.625000 0.250000
vt 0.625000 0.250000
vt 0.625000 0.000000
vt 0.625000 0.500000
vt 0.625000 0.500000
vt 0.625000 0.250000
vt 0.625000 0.000000
vt 0.625000 0.250000
vt 0.625000 0.250000
vt 0.625000 0.250000
vt 0.625000 1.000000
vt 0.625000 1.000000
vt 0.625000 0.000000
vt 0.625000 1.000000
vt 0.625000 0.750000
vt 0.625000 1.000000
vt 0.625000 0.000000
vt 0.625000 0.000000
vt 0.875000 0.750000
vt 0.625000 0.000000
vt 0.625000 0.000000
vt 0.625000 0.000000
vt 0.625000 0.000000
vt 0.625000 1.000000
vt 0.625000 1.000000
vt 0.625000 1.000000
vt 0.625000 1.000000
vt 0.625000 0.000000
vt 0.625000 0.000000
vt 0.625000 0.000000
vt 0.625000 0.000000
vt 0.625000 1.000000
vt 0.625000 1.000000
vt 0.625000 1.000000
vt 0.625000 1.000000
vt 0.625000 0.000000
vt 0.625000 0.000000
vt 0.625000 0.000000
vt 0.625000 0.000000
vt 0.625000 1.000000
vt 0.625000 1.000000
vt 0.625000 1.000000
vt 0.625000 1.000000
vt 0.625000 1.000000
vt 0.625000 1.000000
vt 0.625000 1.000000
vt 0.625000 1.000000
vt 0.625000 0.000000
vt 0.625000 0.000000
vt 0.625000 0.250000
vt 0.625000 0.000000
vt 0.625000 0.000000
vt 0.625000 0.250000
vt 0.625000 0.250000
vt 0.625000 0.000000
vt 0.625000 0.000000
vt 0.625000 0.250000
vt 0.625000 0.750000
vt 0.625000 0.750000
vt 0.625000 0.750000
vt 0.625000 0.500000
vt 0.625000 0.750000
vt 0.625000 0.750000
vt 0.625000 0.500000
vt 0.625000 0.500000
vt 0.625000 0.500000
vt 0.625000 0.500000
vt 0.625000 0.750000
vt 0.625000 0.750000
vt 0.625000 0.750000
vt 0.625000 1.000000
vt 0.625000 0.000000
vt 0.625000 0.000000
vt 0.875000 0.750000
vt 0.625000 0.750000
vt 0.625000 0.000000
vt 0.625000 0.000000
vt 0.625000 0.000000
vt 0.625000 0.000000
vt 0.875000 0.750000
vt 0.625000 0.750000
vt 0.625000 0.750000
vt 0.875000 0.750000
vt 0.625000 0.750000
vt 0.625000 0.750000
vt 0.625000 0.750000
vt 0.625000 0.750000
vt 0.875000 0.750000
vt 0.625000 1.000000
vt 0.625000 0.000000
vt 0.625000 0.000000
vt 0.625000 0.000000
vt 0.625000 0.000000
vt 0.625000 1.000000
vt 0.875000 0.750000
vt 0.625000 0.500000
vt 0.625000 0.500000
vt 0.625000 0.500000
vt 0.625000 0.500000
vt 0.625000 0.250000
vt 0.625000 0.000000
vt 0.625000 0.000000
vt 0.625000 0.250000
vt 0.625000 0.750000
vt 0.875000 0.750000
vt 0.625000 0.500000
vt 0.875000 0.500000
vt 0.875000 0.500000
vt 0.625000 0.500000
vt 0.625000 0.750000
vt 0.875000 0.750000
vt 0.875000 0.750000
vt 0.625000 0.750000
vt 0.625000 0.250000
vt 0.625000 0.000000
vt 0.625000 0.000000
vt 0.625000 0.250000
vt 0.625000 0.250000
vt 0.625000 0.250000
vt 0.625000 0.250000
vt 0.625000 0.250000
vt 0.875000 0.500000
vt 0.875000 0.500000
vt 0.875000 0.500000
vt 0.625000 0.500000
vt 0.625000 0.500000
vt 0.875000 0.500000
vt 0.875000 0.500000
vt 0.625000 0.500000
vt 0.625000 0.250000
vt 0.625000 0.250000
vt 0.625000 0.250000
vt 0.625000 0.250000
vt 0.625000 0.500000
vt 0.875000 0.500000
vt 0.625000 0.500000
vt 0.875000 0.500000
vt 0.875000 0.500000
vt 0.625000 0.500000
vt 0.625000 0.500000
vt 0.875000 0.500000
vt 0.875000 0.500000
vt 0.625000 0.500000
vt 0.625000 0.250000
vt 0.625000 0.250000
vt 0.625000 0.750000
vt 0.625000 0.750000
vt 0.625000 0.750000
vt 0.625000 0.750000
vt 0.625000 0.500000
vt 0.625000 0.750000
vt 0.625000 0.500000
vt 0.625000 0.500000
vt 0.625000 0.750000
vt 0.625000 0.500000
vt 0.875000 0.750000
vt 0.875000 0.750000
vt 0.875000 0.750000
vt 0.875000 0.750000
vt 0.875000 0.500000
vt 0.875000 0.500000
vt 0.625000 0.250000
vt 0.625000 0.000000
vt 0.625000 0.250000
vt 0.625000 0.000000
vt 0.625000 0.000000
vt 0.625000 0.250000
vt 0.875000 0.500000
vt 0.875000 0.500000
vt 0.625000 0.000000
vt 0.625000 0.000000
vt 0.625000 0.000000
vt 0.625000 0.000000
vt 0.875000 0.750000
vt 0.625000 0.750000
vt 0.625000 0.750000
vt 0.875000 0.750000
vt 0.875000 0.750000
vt 0.625000 0.750000
vt 0.625000 0.500000
vt 0.625000 0.250000
vt 0.625000 0.250000
vt 0.625000 1.000000
vt 0.625000 1.000000
vt 0.625000 1.000000
vt 0.625000 1.000000
vt 0.625000 0.000000
vt 0.625000 0.000000
vt 0.625000 1.000000
vt 0.625000 0.750000
vt 0.625000 0.750000
vt 0.625000 1.000000
vt 0.875000 0.750000
vn 0.0084 0.3397 -0.9405
vn 0.0000 0.0223 0.9998
vn -1.0000 0.0000 0.0000
vn 0.0000 -1.0000 0.0000
vn 1.0000 0.0000 0.0000
vn 0.0000 0.0175 -0.9998
vn -0.0034 -0.2307 0.9730
vn -0.0084 -0.3397 0.9405
vn -0.9419 0.3358 -0.0021
vn 0.9439 -0.2721 -0.1873
vn -0.1381 0.2439 -0.9599
vn 0.0301 0.9986 0.0435
vn -0.2576 0.8574 0.4456
vn 0.2214 0.3624 -0.9053
vn -0.9515 0.3073 -0.0147
vn -0.0439 -0.8236 -0.5655
vn -0.9822 0.1592 0.0997
vn 0.9912 0.0503 0.1225
vn -0.0040 0.5839 -0.8118
vn 0.9862 0.0066 -0.1656
vn -0.9771 0.0606 -0.2039
vn -0.9941 0.0913 -0.0591
vn 0.0162 0.4929 0.8699
vn -0.0397 -0.5202 -0.8531
vn 0.9698 0.2435 -0.0155
vn -0.0103 0.8051 0.5931
vn 0.9989 0.0471 0.0041
vn -0.0151 -0.6810 0.7321
vn 0.9962 0.0308 -0.0821
vn -0.0273 0.8658 0.4996
vn 0.0197 0.3326 -0.9429
vn 0.9966 0.0812 -0.0170
vn -0.9877 0.1565 0.0005
vn -0.1013 -0.2383 0.9659
vn -0.2773 -0.1649 0.9465
vn 0.3045 0.8360 0.4565
vn -0.6321 -0.7360 -0.2424
vn 0.5139 0.8075 0.2898
vn -0.5923 -0.0265 0.8053
vn -0.6062 -0.6671 -0.4329
vn 0.1649 0.4757 -0.8640
vn 0.3899 0.8261 0.4068
vn 0.6976 0.1071 -0.7084
vn 0.0906 0.9686 0.2314
vn -0.0028 -0.3415 0.9399
vn 0.0025 0.3416 -0.9398
vn 0.0353 0.0136 -0.9993
vn 0.2076 -0.3573 0.9106
vn -0.4849 -0.8605 -0.1564
vn -0.4574 0.4865 -0.7444
vn -0.0242 -0.6725 0.7397
vn -0.0272 -0.8277 0.5605
vn -0.9929 0.1125 -0.0380
vn 0.0281 0.8545 -0.5187
vn -0.5124 -0.8093 0.2872
vn -0.8140 0.3413 0.4700
vn -0.5804 -0.8059 0.1174
vn 0.7371 -0.1327 0.6627
vn 0.5303 0.6707 0.5185
vn -0.6940 0.4831 -0.5338
vn 0.6188 0.7050 0.3466
vn 0.7345 -0.0412 0.6773
vn -0.5093 -0.8505 0.1313
vn 0.8849 -0.0401 0.4640
vn -0.5099 -0.7866 0.3482
vn -0.8424 0.5166 0.1534
vn -0.4219 0.1757 0.8895
vn -0.4716 -0.8811 0.0368
vn 0.0480 0.9906 -0.1283
vn -0.4867 0.3562 0.7976
vn -0.8713 0.4371 -0.2232
vn -0.0065 0.0392 -0.9992
vn -0.6749 -0.7348 -0.0677
vn 0.1834 0.9814 -0.0567
vn -0.6927 0.6128 -0.3803
vn -0.4636 -0.6617 -0.5892
vn 0.4630 0.4512 -0.7629
vn 0.2740 0.7775 0.5661
vn 0.2883 -0.0762 0.9545
vn 0.6528 -0.7095 -0.2654
vn 0.3996 -0.1392 0.9060
vn -0.0757 0.3530 -0.9325
vn 0.4507 0.0488 0.8913
vn 0.6951 -0.6515 -0.3038
vn -0.1944 0.2811 -0.9398
vn -0.4574 0.7757 0.4349
vn 0.7583 0.6480 -0.0715
vn 0.6093 -0.7296 -0.3106
vn -0.3839 0.0839 -0.9195
vn -0.3951 0.8197 0.4147
vn 0.9951 0.0051 -0.0984
vn 0.8845 0.4493 0.1256
vn 0.8706 -0.3602 0.3352
vn 0.7900 -0.5768 -0.2077
vn -0.0303 -0.8447 0.5345
vn -0.9884 0.1228 0.0897
vn 0.0274 0.7844 -0.6197
vn 0.9874 0.0622 0.1456
vn -0.9914 0.1167 0.0585
vn -0.9927 0.1039 -0.0614
vn 0.0081 0.1155 0.9933
vn 0.9987 0.0435 -0.0258
vn 0.9917 0.0686 0.1086
vn 0.0328 0.9995 -0.0012
vn 0.9967 0.0515 0.0630
vn -0.0328 -0.9901 0.1366
vn -0.9764 0.1778 0.1228
vn -0.0288 -0.7893 0.6134
vn -0.9891 0.1290 0.0710
vn 0.0312 0.8983 -0.4382
vn -0.2042 -0.2383 0.9495
vn -0.9883 0.1521 -0.0134
vn -0.1469 0.4230 -0.8941
vn 0.9949 0.0944 -0.0363
vn -0.9527 -0.3034 -0.0143
vn 0.9985 0.0531 0.0109
vn -0.9927 0.1204 -0.0087
vn -0.0152 -0.1747 0.9845
vn 0.0130 0.1003 -0.9949
vn -0.0058 0.1295 0.9916
vn 0.0146 0.1542 -0.9879
vn 0.9938 0.1109 0.0116
vn 0.0312 0.9994 0.0128
vn 0.9983 0.0567 0.0110
vn -0.9928 0.1191 -0.0087
vn -0.0075 0.0755 0.9971
vn -0.9925 0.1078 0.0574
vn -0.0543 -0.8991 -0.4343
vn -0.9920 0.0648 0.1082
vn 0.0198 0.9275 0.3733
vn -0.0695 0.6643 0.7442
vn -0.0802 -0.6161 -0.7836
vn 0.0430 0.7152 0.6976
vn 0.9800 0.1826 -0.0786
vn -0.9499 0.1059 -0.2941
vn 0.9817 0.0047 0.1906
vn -0.9935 0.1006 -0.0530
vn 0.0521 -0.6125 -0.7888
vn 0.1007 -0.8538 -0.5108
vn 0.0906 -0.8778 -0.4703
vn -0.0584 0.9519 0.3009
vn 0.9697 0.1065 0.2200
vn 0.2375 0.3937 -0.8880
vn -0.0455 0.9655 0.2565
vn 0.9753 0.1224 0.1841
vn -0.9367 0.1206 -0.3287
vn 0.2921 -0.0138 0.9563
vn -0.5080 0.8507 0.1352
vn 0.6410 -0.7226 -0.2588
vn 0.3520 -0.0620 0.9339
vn -0.2347 0.9626 0.1352
vn 0.7514 -0.6022 -0.2698
vn -0.5867 0.7980 0.1374
vn -0.2139 0.3804 -0.8998
vn 0.9388 0.3416 -0.0447
vn -0.0549 0.4311 -0.9006
vn 0.2320 -0.1029 0.9673
vn 0.4133 -0.8682 -0.2747
vn 0.0343 0.1389 0.9897
vn -0.0273 0.1763 -0.9840
vn -0.1040 0.1710 0.9798
vn 0.8084 0.5885 0.0156
vn -0.7456 0.6663 -0.0080
vn -0.7556 -0.6549 -0.0149
vn 0.0645 0.1491 -0.9867
vn 0.5659 0.8244 0.0129
vn -0.9882 0.1495 0.0326
vn -0.9752 0.2121 -0.0631
vn 0.0106 0.2723 -0.9621
vn 0.9894 0.1394 -0.0417
vn 0.0309 0.9767 0.2123
vn -0.0005 0.4052 -0.9142
vn 0.9958 0.0897 0.0194
vn 0.0197 -0.0115 0.9997
vn 0.0307 0.9348 -0.3537
vn -0.9804 0.1751 0.0907
vn -0.0068 -0.2058 -0.9786
vn 0.9897 0.1104 0.0907
vn -0.1993 0.0074 0.9799
vn -0.8458 0.5333 -0.0138
vn 0.6253 0.7066 0.3312
vn 0.9431 -0.0383 0.3303
vn -0.0000 0.4156 0.9095
vn 0.0322 0.9714 -0.2354
vn 0.9815 0.1193 0.1496
vn -0.0322 -0.8138 0.5802
usemtl Material
s off
f 46/1/1 45/2/1 12/3/1 11/4/1
f 4/5/2 3/6/2 7/7/2 8/8/2
f 8/9/3 7/10/3 5/11/3 6/12/3
f 6/13/4 2/14/4 4/5/4 8/15/4
f 2/14/5 1/16/5 3/6/5 4/5/5
f 6/12/6 5/11/6 1/16/6 2/14/6
f 10/17/7 9/18/7 13/19/7 14/20/7
f 48/21/8 47/22/8 9/18/8 10/17/8
f 45/2/9 48/23/9 10/24/9 12/3/9
f 47/22/10 46/1/10 11/4/10 9/18/10
f 15/25/11 16/26/11 24/27/11 23/28/11
f 16/26/12 15/25/12 20/29/12 19/30/12
f 15/25/13 13/19/13 84/31/13 83/32/13
f 16/33/14 12/3/14 38/34/14 40/35/14
f 17/36/15 19/37/15 27/38/15 25/39/15
f 11/4/16 12/3/16 17/36/16 18/40/16
f 12/3/17 16/33/17 19/37/17 17/36/17
f 15/25/18 11/4/18 18/40/18 20/29/18
f 114/41/19 113/42/19 36/43/19 35/44/19
f 13/19/20 15/25/20 23/28/20 21/45/20
f 16/33/21 14/46/21 22/47/21 24/48/21
f 22/47/22 14/46/22 30/49/22 32/50/22
f 27/51/23 28/52/23 180/53/23 179/54/23
f 18/40/24 17/36/24 25/39/24 26/55/24
f 20/29/25 18/40/25 26/55/25 28/52/25
f 19/30/26 20/29/26 28/52/26 27/51/26
f 29/56/27 31/57/27 55/58/27 53/59/27
f 14/20/28 13/19/28 29/56/28 30/60/28
f 13/19/29 21/45/29 31/57/29 29/56/29
f 21/45/30 22/61/30 32/62/30 31/57/30
f 35/44/31 36/43/31 120/63/31 119/64/31
f 115/65/32 114/41/32 35/44/32 33/66/32
f 113/67/33 116/68/33 34/69/33 36/70/33
f 116/71/34 115/65/34 33/66/34 34/72/34
f 37/73/35 39/74/35 43/75/35 41/76/35
f 14/46/36 16/33/36 40/35/36 39/77/36
f 12/3/37 10/24/37 37/78/37 38/34/37
f 14/46/38 39/77/38 59/79/38 57/80/38
f 41/76/39 43/75/39 79/81/39 77/82/39
f 38/34/40 37/78/40 41/83/40 42/84/40
f 40/35/41 38/34/41 42/84/41 44/85/41
f 39/77/42 40/35/42 44/85/42 43/86/42
f 1/16/43 46/1/43 95/87/43 93/88/43
f 48/23/44 45/2/44 52/89/44 51/90/44
f 7/7/45 3/6/45 47/22/45 48/21/45
f 1/16/46 5/11/46 45/2/46 46/1/46
f 52/89/47 50/91/47 70/92/47 72/93/47
f 7/7/48 48/21/48 51/94/48 49/95/48
f 5/11/49 7/10/49 49/96/49 50/91/49
f 45/2/50 5/11/50 50/91/50 52/89/50
f 54/97/51 53/59/51 97/98/51 98/99/51
f 30/60/52 29/56/52 53/59/52 54/97/52
f 32/50/53 30/49/53 54/100/53 56/101/53
f 31/57/54 32/62/54 56/102/54 55/58/54
f 60/103/55 58/104/55 62/105/55 64/106/55
f 39/74/56 37/73/56 60/107/56 59/108/56
f 37/78/57 10/24/57 58/104/57 60/103/57
f 10/17/58 14/20/58 57/109/58 58/110/58
f 61/111/59 63/112/59 67/113/59 65/114/59
f 59/108/60 60/107/60 64/115/60 63/116/60
f 57/80/61 59/79/61 63/112/61 61/111/61
f 58/110/62 57/109/62 61/117/62 62/118/62
f 68/119/63 66/120/63 182/121/63 184/122/63
f 62/118/64 61/117/64 65/123/64 66/124/64
f 64/106/65 62/105/65 66/120/65 68/119/65
f 63/116/66 64/115/66 68/125/66 67/126/66
f 69/127/67 71/128/67 75/129/67 73/130/67
f 50/91/68 49/96/68 69/131/68 70/92/68
f 51/90/69 52/89/69 72/93/69 71/132/69
f 49/95/70 51/94/70 71/128/70 69/127/70
f 74/133/71 73/134/71 75/135/71 76/136/71
f 72/93/72 70/92/72 74/133/72 76/136/72
f 70/92/73 69/131/73 73/134/73 74/133/73
f 71/132/74 72/93/74 76/136/74 75/135/74
f 78/137/75 77/138/75 79/139/75 80/140/75
f 42/84/76 41/83/76 77/138/76 78/137/76
f 44/85/77 42/84/77 78/137/77 80/140/77
f 43/86/78 44/85/78 80/140/78 79/139/78
f 84/31/79 82/141/79 86/142/79 88/143/79
f 9/18/80 11/4/80 81/144/80 82/141/80
f 13/19/81 9/18/81 82/141/81 84/31/81
f 11/4/82 15/25/82 83/32/82 81/144/82
f 88/143/83 86/142/83 90/145/83 92/146/83
f 82/141/84 81/144/84 85/147/84 86/142/84
f 81/144/85 83/32/85 87/148/85 85/147/85
f 83/32/86 84/31/86 88/143/86 87/148/86
f 90/145/87 89/149/87 91/150/87 92/146/87
f 86/142/88 85/147/88 89/149/88 90/145/88
f 85/147/89 87/148/89 91/150/89 89/149/89
f 87/148/90 88/143/90 92/146/90 91/150/90
f 94/151/91 93/88/91 95/87/91 96/152/91
f 46/1/92 47/22/92 96/152/92 95/87/92
f 47/22/93 3/6/93 94/151/93 96/152/93
f 3/6/94 1/16/94 93/88/94 94/151/94
f 98/99/95 97/98/95 101/153/95 102/154/95
f 56/101/96 54/100/96 98/155/96 100/156/96
f 55/58/97 56/102/97 100/157/97 99/158/97
f 53/59/98 55/58/98 99/158/98 97/98/98
f 104/159/99 102/160/99 106/161/99 108/162/99
f 100/156/100 98/155/100 102/160/100 104/159/100
f 104/163/101 103/164/101 171/165/101 172/166/101
f 97/98/102 99/158/102 103/164/102 101/153/102
f 105/167/103 107/168/103 111/169/103 109/170/103
f 103/164/104 104/163/104 108/171/104 107/168/104
f 101/153/105 103/164/105 107/168/105 105/167/105
f 102/154/106 101/153/106 105/167/106 106/172/106
f 112/173/107 110/174/107 186/175/107 188/176/107
f 106/172/108 105/167/108 109/170/108 110/177/108
f 108/162/109 106/161/109 110/174/109 112/173/109
f 107/168/110 108/171/110 112/178/110 111/169/110
f 22/61/111 21/45/111 115/65/111 116/71/111
f 24/48/112 22/47/112 116/68/112 113/67/112
f 23/28/113 114/41/113 151/179/113 149/180/113
f 114/41/114 23/28/114 130/181/114 131/182/114
f 120/183/115 118/184/115 161/185/115 162/186/115
f 33/66/116 35/44/116 119/64/116 117/187/116
f 36/70/117 34/69/117 118/184/117 120/183/117
f 34/72/118 33/66/118 117/187/118 118/188/118
f 123/189/119 124/190/119 128/191/119 127/192/119
f 118/188/120 117/187/120 121/193/120 122/194/120
f 119/64/121 120/63/121 124/190/121 123/189/121
f 117/187/122 119/64/122 123/189/122 121/193/122
f 127/192/123 128/191/123 126/195/123 125/196/123
f 121/193/124 123/189/124 127/192/124 125/196/124
f 124/197/125 122/198/125 126/199/125 128/200/125
f 122/194/126 121/193/126 125/196/126 126/195/126
f 129/201/127 132/202/127 136/203/127 133/204/127
f 23/28/128 24/27/128 129/205/128 130/181/128
f 24/48/129 113/67/129 132/202/129 129/201/129
f 113/42/130 114/41/130 131/182/130 132/206/130
f 136/207/131 135/208/131 139/209/131 140/210/131
f 130/181/132 129/205/132 133/211/132 134/212/132
f 132/206/133 131/182/133 135/208/133 136/207/133
f 131/182/134 130/181/134 134/212/134 135/208/134
f 137/213/135 140/214/135 144/215/135 141/216/135
f 135/208/136 134/212/136 138/217/136 139/209/136
f 133/204/137 136/203/137 140/214/137 137/213/137
f 134/212/138 133/211/138 137/218/138 138/217/138
f 142/219/139 141/220/139 145/221/139 146/222/139
f 138/217/140 137/218/140 141/220/140 142/219/140
f 140/210/141 139/209/141 143/223/141 144/224/141
f 139/209/142 138/217/142 142/219/142 143/223/142
f 146/222/143 145/221/143 148/225/143 147/226/143
f 144/224/144 143/223/144 147/226/144 148/225/144
f 143/223/145 142/219/145 146/222/145 147/226/145
f 141/216/146 144/215/146 148/227/146 145/228/146
f 152/229/147 150/230/147 154/231/147 156/232/147
f 114/41/148 115/65/148 152/229/148 151/179/148
f 21/45/149 23/28/149 149/180/149 150/230/149
f 115/65/150 21/45/150 150/230/150 152/229/150
f 155/233/151 156/232/151 160/234/151 159/235/151
f 150/230/152 149/180/152 153/236/152 154/231/152
f 151/179/153 152/229/153 156/232/153 155/233/153
f 149/180/154 151/179/154 155/233/154 153/236/154
f 158/237/155 157/238/155 159/235/155 160/234/155
f 153/236/156 155/233/156 159/235/156 157/238/156
f 156/232/157 154/231/157 158/237/157 160/234/157
f 154/231/158 153/236/158 157/238/158 158/237/158
f 161/239/159 163/240/159 167/241/159 165/242/159
f 124/190/160 120/63/160 162/243/160 164/244/160
f 118/188/161 122/194/161 163/240/161 161/239/161
f 122/198/162 124/197/162 164/245/162 163/246/162
f 166/247/163 165/248/163 167/249/163 168/250/163
f 162/186/164 161/185/164 165/248/164 166/247/164
f 164/244/165 162/243/165 166/251/165 168/252/165
f 163/246/166 164/245/166 168/250/166 167/249/166
f 170/253/167 172/254/167 176/255/167 174/256/167
f 100/156/168 104/159/168 172/254/168 170/253/168
f 99/158/169 100/157/169 170/257/169 169/258/169
f 103/164/170 99/158/170 169/258/170 171/165/170
f 173/259/171 174/260/171 176/261/171 175/262/171
f 169/258/172 170/257/172 174/260/172 173/259/172
f 171/165/173 169/258/173 173/259/173 175/262/173
f 172/166/174 171/165/174 175/262/174 176/261/174
f 178/263/175 177/264/175 179/265/175 180/53/175
f 25/39/176 27/38/176 179/265/176 177/264/176
f 26/55/177 25/39/177 177/264/177 178/263/177
f 28/52/178 26/55/178 178/263/178 180/53/178
f 182/266/179 181/267/179 183/268/179 184/269/179
f 67/126/180 68/125/180 184/269/180 183/268/180
f 65/114/181 67/113/181 183/270/181 181/271/181
f 66/124/182 65/123/182 181/267/182 182/266/182
f 186/272/183 185/273/183 187/274/183 188/275/183
f 111/169/184 112/178/184 188/276/184 187/274/184
f 109/170/185 111/169/185 187/274/185 185/273/185
f 110/177/186 109/170/186 185/273/186 186/272/186
