# Blender v2.81 (sub 16) OBJ File: ''
# www.blender.org
mtllib Pufferfish_Mob.mtl
o Cube
v 0.794586 0.794586 -0.756539
v 0.794586 -0.794586 -0.756539
v 0.794586 0.794586 0.832634
v 0.794586 -0.794586 0.832634
v -0.794586 0.794586 -0.756539
v -0.794586 -0.794586 -0.756539
v -0.794586 0.794586 0.832634
v -0.794586 -0.794586 0.832633
v -0.578597 -0.578597 -0.279920
v -0.609568 -0.609568 -0.000000
v -0.578597 -0.578597 0.279920
v 0.279920 -0.578597 -0.578597
v 0.000000 -0.609568 -0.609568
v -0.279920 -0.578597 -0.578597
v 0.578597 0.279920 -0.578597
v 0.609568 0.000000 -0.609568
v 0.578597 -0.279920 -0.578597
v -0.578597 -0.279920 0.578597
v -0.609568 0.000000 0.609568
v -0.578597 0.279920 0.578597
v 0.578597 0.279920 0.578597
v 0.609568 0.000000 0.609568
v 0.578597 -0.279920 0.578597
v -0.578597 0.279920 -0.578597
v -0.609568 0.000000 -0.609568
v -0.578597 -0.279920 -0.578597
v 0.279920 0.578597 0.578597
v -0.000000 0.609568 0.609568
v -0.279920 0.578597 0.578597
v 0.578597 0.578597 -0.279920
v 0.609568 0.609568 0.000000
v 0.578597 0.578597 0.279920
v -0.279920 -0.578597 0.578597
v -0.000000 -0.609568 0.609568
v 0.279920 -0.578597 0.578597
v -0.578597 0.578597 0.279920
v -0.609568 0.609568 0.000000
v -0.578597 0.578597 -0.279920
v -0.279920 0.578597 -0.578597
v -0.000000 0.609568 -0.609568
v 0.279920 0.578597 -0.578597
v 0.578597 -0.578597 0.279920
v 0.609568 -0.609568 0.000000
v 0.578597 -0.578597 -0.279920
v 0.315214 0.729815 -0.315214
v 0.000000 0.781829 -0.333140
v -0.315214 0.729815 -0.315214
v 0.333140 0.781829 0.000000
v -0.000000 1.334120 0.038047
v -0.333140 0.781829 0.000000
v 0.315214 0.729815 0.315214
v -0.000000 0.781829 0.333140
v -0.315214 0.729815 0.315214
v 0.315214 -0.315214 0.729815
v 0.333140 0.000000 0.781829
v 0.315214 0.315214 0.729815
v -0.000000 -0.333140 0.781829
v 0.000000 0.000000 0.839506
v -0.000000 0.333140 0.781829
v -0.315214 -0.315214 0.729815
v -0.333140 0.000000 0.781829
v -0.315214 0.315214 0.729815
v -0.729815 -0.315214 0.315214
v -0.781829 0.000000 0.333140
v -0.729815 0.315214 0.315214
v -0.781829 -0.333140 -0.000000
v -1.334120 0.000000 0.038047
v -0.781829 0.333140 -0.000000
v -0.729815 -0.315214 -0.315214
v -0.781829 0.000000 -0.333140
v -0.729815 0.315214 -0.315214
v -0.315214 -0.729815 -0.315214
v 0.000000 -0.781829 -0.333140
v 0.315214 -0.729815 -0.315214
v -0.333140 -0.781829 0.000000
v -0.000000 -1.334120 0.038047
v 0.333140 -0.781829 0.000000
v -0.315214 -0.729815 0.315214
v 0.000000 -0.781829 0.333140
v 0.315214 -0.729815 0.315214
v 0.729815 -0.315214 -0.315214
v 0.781829 0.000000 -0.333140
v 0.729815 0.315214 -0.315214
v 0.781829 -0.333140 0.000000
v 1.334120 0.000000 0.038047
v 0.781829 0.333140 0.000000
v 0.729815 -0.315214 0.315214
v 0.781829 -0.000000 0.333140
v 0.729815 0.315214 0.315214
v -0.315214 -0.181208 -0.729815
v -0.333140 0.000000 -0.781829
v -0.315214 0.179015 -0.729815
v 0.000000 -0.260988 -0.781829
v 0.000000 0.000000 -1.660516
v 0.000000 0.265506 -0.781829
v 0.315214 -0.181208 -0.729815
v 0.333140 0.000000 -0.781829
v 0.315214 0.179015 -0.729815
v -0.157607 0.090550 -1.195166
v 0.157607 0.090550 -1.195166
v 0.157607 -0.084323 -1.195166
v -0.157607 -0.084323 -1.195166
v -0.476879 0.032387 0.623801
v -0.452650 0.251375 0.599571
v 0.452650 0.251375 0.599571
v 0.476879 0.032387 0.623801
v 0.260624 0.032387 0.758564
v 0.246599 0.278986 0.717873
v -0.260624 0.032387 0.758564
v -0.246599 0.278986 0.717873
vt 0.695894 0.554893
vt 0.752821 0.559896
vt 0.751736 0.625000
vt 0.692491 0.625000
vt 0.812853 0.562174
vt 0.812717 0.625000
vt 0.752821 0.690104
vt 0.695894 0.696246
vt 0.812853 0.687826
vt 0.666667 0.458333
vt 0.705078 0.482422
vt 0.639643 0.540913
vt 0.755208 0.494792
vt 0.813151 0.499349
vt 0.875000 0.500000
vt 0.875000 0.562500
vt 0.875000 0.625000
vt 0.875000 0.687500
vt 0.875000 0.750000
vt 0.813151 0.750651
vt 0.755208 0.755208
vt 0.705078 0.767578
vt 0.639643 0.709087
vt 0.666667 0.791667
vt 0.631945 0.625000
vt 0.428754 0.820894
vt 0.500000 0.817491
vt 0.500000 0.876736
vt 0.434896 0.877821
vt 0.570107 0.820894
vt 0.565104 0.877821
vt 0.500000 0.937717
vt 0.437174 0.937853
vt 0.562826 0.937853
vt 0.333333 0.791667
vt 0.415913 0.764643
vt 0.357422 0.830078
vt 0.500000 0.756945
vt 0.500000 0.817491
vt 0.570107 0.820894
vt 0.584087 0.764643
vt 0.642578 0.830078
vt 0.630208 0.880208
vt 0.625651 0.938151
vt 0.625000 1.000000
vt 0.562500 1.000000
vt 0.584087 0.764643
vt 0.500000 1.000000
vt 0.437500 1.000000
vt 0.374349 0.938151
vt 0.375000 1.000000
vt 0.369792 0.880208
vt 0.437500 0.062500
vt 0.500000 0.062500
vt 0.500000 0.125000
vt 0.437500 0.125000
vt 0.562500 0.062500
vt 0.562500 0.125000
vt 0.500000 0.187500
vt 0.437500 0.187500
vt 0.562500 0.187500
vt 0.375000 0.000000
vt 0.437500 0.000000
vt 0.375000 0.062500
vt 0.500000 0.000000
vt 0.562500 0.000000
vt 0.625000 0.000000
vt 0.625000 0.062500
vt 0.625000 0.125000
vt 0.625000 0.187500
vt 0.625000 0.250000
vt 0.562500 0.250000
vt 0.500000 0.250000
vt 0.437500 0.250000
vt 0.375000 0.187500
vt 0.375000 0.250000
vt 0.375000 0.125000
vt 0.187147 0.562174
vt 0.247179 0.559896
vt 0.248264 0.625000
vt 0.187283 0.625000
vt 0.304106 0.553754
vt 0.307509 0.625000
vt 0.247179 0.690104
vt 0.187147 0.687826
vt 0.304107 0.695107
vt 0.125000 0.500000
vt 0.186849 0.499349
vt 0.125000 0.562500
vt 0.244792 0.494792
vt 0.294922 0.482422
vt 0.333333 0.458333
vt 0.360357 0.540913
vt 0.368056 0.625000
vt 0.360357 0.709087
vt 0.294922 0.767578
vt 0.244792 0.755209
vt 0.186849 0.750651
vt 0.125000 0.687500
vt 0.125000 0.750000
vt 0.125000 0.625000
vt 0.428877 0.555016
vt 0.500000 0.557726
vt 0.500000 0.625000
vt 0.432726 0.625000
vt 0.569984 0.553877
vt 0.567274 0.625000
vt 0.500000 0.692274
vt 0.430016 0.696124
vt 0.571123 0.694984
vt 0.415913 0.485357
vt 0.500000 0.493056
vt 0.584087 0.485357
vt 0.437175 0.312147
vt 0.468587 0.342706
vt 0.434896 0.372179
vt 0.500000 0.312283
vt 0.531413 0.342706
vt 0.500000 0.373264
vt 0.464947 0.401185
vt 0.429893 0.429106
vt 0.535623 0.401185
vt 0.500000 0.432509
vt 0.374349 0.311849
vt 0.562826 0.312147
vt 0.625651 0.311849
vt 0.630208 0.369792
vt 0.565104 0.372179
vt 0.642578 0.419922
vt 0.571246 0.429107
vt 0.357422 0.419922
vt 0.369792 0.369792
vt 0.500000 0.756945
vt 0.500000 0.937717
vt 0.562826 0.937853
vt 0.562500 1.000000
vt 0.500000 1.000000
vt 0.500000 0.000000
vt 0.562500 0.000000
vn 0.5570 0.6161 -0.5570
vn -0.5570 0.6161 -0.5570
vn 0.5811 0.5697 0.5811
vn -0.5811 0.5697 0.5811
vn -0.0700 0.9951 0.0700
vn 0.1597 0.8421 -0.5151
vn -0.1597 0.8421 -0.5151
vn 0.0700 0.9951 0.0700
vn -0.5151 0.8421 -0.1597
vn -0.5151 0.8421 0.1597
vn 0.0647 0.9958 -0.0647
vn -0.1597 0.8421 0.5151
vn 0.1597 0.8421 0.5151
vn -0.0647 0.9958 -0.0647
vn 0.5151 0.8421 0.1597
vn 0.5151 0.8421 -0.1597
vn 0.1690 -0.1690 0.9710
vn 0.1690 0.1690 0.9710
vn -0.1690 -0.1690 0.9710
vn -0.1690 0.1690 0.9710
vn -0.1060 0.1060 0.9887
vn 0.5151 -0.1597 0.8421
vn 0.2432 -0.1444 -0.9592
vn -0.1060 -0.1060 0.9887
vn 0.1597 0.5151 0.8421
vn -0.1597 0.5151 0.8421
vn 0.1060 -0.1060 0.9887
vn 0.2697 -0.7212 0.6381
vn -0.5151 -0.1597 0.8421
vn 0.1060 0.1060 0.9887
vn -0.1597 -0.5151 0.8421
vn 0.1597 -0.5151 0.8421
vn -0.5697 -0.5811 0.5811
vn -0.5697 0.5811 0.5811
vn -0.6161 -0.5570 -0.5570
vn -0.6161 0.5570 -0.5570
vn -0.9958 0.0647 -0.0647
vn -0.8421 -0.1597 0.5151
vn -0.8421 0.1597 0.5151
vn -0.9958 -0.0647 -0.0647
vn -0.8421 0.5151 0.1597
vn -0.8421 0.5151 -0.1597
vn -0.9951 -0.0700 0.0700
vn -0.8421 0.1597 -0.5151
vn -0.8421 -0.1597 -0.5151
vn -0.9951 0.0700 0.0700
vn -0.8421 -0.5151 -0.1597
vn -0.8421 -0.5151 0.1597
vn -0.5570 -0.6161 -0.5570
vn 0.5570 -0.6161 -0.5570
vn -0.5811 -0.5697 0.5811
vn 0.5811 -0.5697 0.5811
vn 0.0700 -0.9951 0.0700
vn -0.1597 -0.8421 -0.5151
vn 0.1597 -0.8421 -0.5151
vn -0.0700 -0.9951 0.0700
vn 0.5151 -0.8421 -0.1597
vn 0.5151 -0.8421 0.1597
vn -0.0647 -0.9958 -0.0647
vn 0.1597 -0.8421 0.5151
vn -0.1597 -0.8421 0.5151
vn 0.0647 -0.9958 -0.0647
vn -0.5151 -0.8421 0.1597
vn -0.5151 -0.8421 -0.1597
vn 0.6161 -0.5570 -0.5570
vn 0.6161 0.5570 -0.5570
vn 0.5697 -0.5811 0.5811
vn 0.5697 0.5811 0.5811
vn 0.9951 0.0700 0.0700
vn 0.8421 -0.1597 -0.5151
vn 0.8421 0.1597 -0.5151
vn 0.9951 -0.0700 0.0700
vn 0.8421 0.5151 -0.1597
vn 0.8421 0.5151 0.1597
vn 0.9958 -0.0647 -0.0647
vn 0.8421 0.1597 0.5151
vn 0.8421 -0.1597 0.5151
vn 0.9958 0.0647 -0.0647
vn 0.8421 -0.5151 0.1597
vn 0.8421 -0.5151 -0.1597
vn -0.2791 -0.9168 -0.2854
vn -0.9179 0.1908 -0.3480
vn 0.2791 -0.9168 -0.2854
vn 0.9179 0.1908 -0.3480
vn 0.0244 0.0244 -0.9994
vn -0.4754 -0.2044 -0.8557
vn -0.4745 0.2053 -0.8559
vn 0.0244 -0.0244 -0.9994
vn -0.2034 0.3987 -0.8943
vn 0.2034 0.3987 -0.8943
vn -0.0244 -0.0244 -0.9994
vn 0.4745 0.2053 -0.8559
vn 0.4754 -0.2044 -0.8557
vn -0.0244 0.0244 -0.9994
vn 0.1989 -0.3978 -0.8957
vn -0.1989 -0.3978 -0.8957
vn 0.2963 0.9149 -0.2743
vn -0.2909 0.9159 -0.2767
vn 0.9169 -0.1913 -0.3504
vn -0.9153 -0.2043 -0.3470
vn -0.2963 0.9149 -0.2743
vn 0.2909 0.9159 -0.2767
vn 0.3115 -0.9109 -0.2706
vn -0.3115 -0.9109 -0.2706
vn 0.9177 0.1928 -0.3475
vn 0.9153 -0.2043 -0.3470
vn -0.9177 0.1928 -0.3475
vn -0.9169 -0.1913 -0.3504
vn 0.5151 0.1597 0.8421
vn -0.5151 0.1597 0.8421
vn -0.2575 0.8735 0.4132
vn -0.1356 0.1238 0.9830
vn 0.2575 0.8735 0.4132
vn 0.1356 0.1238 0.9830
vn -0.2432 -0.1444 -0.9592
vn -0.2697 -0.7212 0.6381
usemtl Material
s off
f 45/1/1 46/2/1 49/3/1 48/4/1
f 46/2/2 47/5/2 50/6/2 49/3/2
f 48/4/3 49/3/3 52/7/3 51/8/3
f 49/3/4 50/6/4 53/9/4 52/7/4
f 1/10/5 41/11/5 45/1/5 30/12/5
f 41/11/6 40/13/6 46/2/6 45/1/6
f 40/13/7 39/14/7 47/5/7 46/2/7
f 39/14/8 5/15/8 38/16/8 47/5/8
f 47/5/9 38/16/9 37/17/9 50/6/9
f 50/6/10 37/17/10 36/18/10 53/9/10
f 53/9/11 36/18/11 7/19/11 29/20/11
f 52/7/12 53/9/12 29/20/12 28/21/12
f 51/8/13 52/7/13 28/21/13 27/22/13
f 32/23/14 51/8/14 27/22/14 3/24/14
f 31/25/15 48/4/15 51/8/15 32/23/15
f 30/12/16 45/1/16 48/4/16 31/25/16
f 54/26/17 55/27/17 58/28/17 57/29/17
f 55/27/18 56/30/18 59/31/18 58/28/18
f 57/29/19 58/28/19 61/32/19 60/33/19
f 58/28/20 59/31/20 62/34/20 61/32/20
f 4/35/21 23/36/21 54/26/21 35/37/21
f 23/36/22 22/38/22 55/27/22 54/26/22
f 56/30/23 55/27/23 107/39/23 108/40/23
f 21/41/24 3/24/24 27/42/24 56/30/24
f 56/30/25 27/42/25 28/43/25 59/31/25
f 59/31/26 28/43/26 29/44/26 62/34/26
f 62/34/27 29/44/27 7/45/27 20/46/27
f 21/41/28 56/30/28 108/40/28 105/47/28
f 60/33/29 61/32/29 19/48/29 18/49/29
f 33/50/30 60/33/30 18/49/30 8/51/30
f 34/52/31 57/29/31 60/33/31 33/50/31
f 35/37/32 54/26/32 57/29/32 34/52/32
f 63/53/33 64/54/33 67/55/33 66/56/33
f 64/54/34 65/57/34 68/58/34 67/55/34
f 66/56/35 67/55/35 70/59/35 69/60/35
f 67/55/36 68/58/36 71/61/36 70/59/36
f 8/62/37 18/63/37 63/53/37 11/64/37
f 18/63/38 19/65/38 64/54/38 63/53/38
f 19/65/39 20/66/39 65/57/39 64/54/39
f 20/66/40 7/67/40 36/68/40 65/57/40
f 65/57/41 36/68/41 37/69/41 68/58/41
f 68/58/42 37/69/42 38/70/42 71/61/42
f 71/61/43 38/70/43 5/71/43 24/72/43
f 70/59/44 71/61/44 24/72/44 25/73/44
f 69/60/45 70/59/45 25/73/45 26/74/45
f 9/75/46 69/60/46 26/74/46 6/76/46
f 10/77/47 66/56/47 69/60/47 9/75/47
f 11/64/48 63/53/48 66/56/48 10/77/48
f 72/78/49 73/79/49 76/80/49 75/81/49
f 73/79/50 74/82/50 77/83/50 76/80/50
f 75/81/51 76/80/51 79/84/51 78/85/51
f 76/80/52 77/83/52 80/86/52 79/84/52
f 6/87/53 14/88/53 72/78/53 9/89/53
f 14/88/54 13/90/54 73/79/54 72/78/54
f 13/90/55 12/91/55 74/82/55 73/79/55
f 12/91/56 2/92/56 44/93/56 74/82/56
f 74/82/57 44/93/57 43/94/57 77/83/57
f 77/83/58 43/94/58 42/95/58 80/86/58
f 80/86/59 42/95/59 4/35/59 35/96/59
f 79/84/60 80/86/60 35/96/60 34/97/60
f 78/85/61 79/84/61 34/97/61 33/98/61
f 11/99/62 78/85/62 33/98/62 8/100/62
f 10/101/63 75/81/63 78/85/63 11/99/63
f 9/89/64 72/78/64 75/81/64 10/101/64
f 81/102/65 82/103/65 85/104/65 84/105/65
f 82/103/66 83/106/66 86/107/66 85/104/66
f 84/105/67 85/104/67 88/108/67 87/109/67
f 85/104/68 86/107/68 89/110/68 88/108/68
f 2/92/69 17/111/69 81/102/69 44/93/69
f 17/111/70 16/112/70 82/103/70 81/102/70
f 16/112/71 15/113/71 83/106/71 82/103/71
f 15/113/72 1/10/72 30/12/72 83/106/72
f 83/106/73 30/12/73 31/25/73 86/107/73
f 86/107/74 31/25/74 32/23/74 89/110/74
f 89/110/75 32/23/75 3/24/75 21/41/75
f 88/108/76 89/110/76 21/41/76 22/38/76
f 87/109/77 88/108/77 22/38/77 23/36/77
f 42/95/78 87/109/78 23/36/78 4/35/78
f 43/94/79 84/105/79 87/109/79 42/95/79
f 44/93/80 81/102/80 84/105/80 43/94/80
f 90/114/81 102/115/81 93/116/81
f 91/117/82 99/118/82 94/119/82
f 93/116/83 101/120/83 96/121/83
f 94/119/84 100/122/84 97/123/84
f 6/76/85 26/74/85 90/114/85 14/124/85
f 26/74/86 25/73/86 91/117/86 90/114/86
f 25/73/87 24/72/87 92/125/87 91/117/87
f 24/72/88 5/71/88 39/126/88 92/125/88
f 92/125/89 39/126/89 40/127/89 95/128/89
f 95/128/90 40/127/90 41/129/90 98/130/90
f 98/130/91 41/129/91 1/10/91 15/113/91
f 97/123/92 98/130/92 15/113/92 16/112/92
f 96/121/93 97/123/93 16/112/93 17/111/93
f 12/131/94 96/121/94 17/111/94 2/92/94
f 13/132/95 93/116/95 96/121/95 12/131/95
f 14/124/96 90/114/96 93/116/96 13/132/96
f 98/130/97 100/122/97 95/128/97
f 94/119/98 99/118/98 95/128/98
f 96/121/99 101/120/99 97/123/99
f 94/119/100 102/115/100 91/117/100
f 95/128/101 99/118/101 92/125/101
f 95/128/102 100/122/102 94/119/102
f 101/120/103 93/116/103 94/119/103
f 93/116/104 102/115/104 94/119/104
f 97/123/105 100/122/105 98/130/105
f 97/123/106 101/120/106 94/119/106
f 99/118/107 91/117/107 92/125/107
f 91/117/108 102/115/108 90/114/108
f 106/133/109 105/47/109 108/40/109 107/39/109
f 109/134/110 110/135/110 104/136/110 103/137/110
f 19/48/111 61/32/111 109/134/111 103/137/111
f 20/66/112 19/65/112 103/138/112 104/139/112
f 55/27/113 22/38/113 106/133/113 107/39/113
f 22/38/114 21/41/114 105/47/114 106/133/114
f 61/32/115 62/34/115 110/135/115 109/134/115
f 62/34/116 20/46/116 104/136/116 110/135/116
